<?xml version="1.0" encoding="iso-8859-1"?>
<!-- Generator: Adobe Illustrator 19.0.0, SVG Export Plug-In . SVG Version: 6.00 Build 0)  -->
<svg version="1.1" id="Layer_1" xmlns="http://www.w3.org/2000/svg" xmlns:xlink="http://www.w3.org/1999/xlink" x="0px" y="0px"
	 viewBox="0 0 512 512" style="enable-background:new 0 0 512 512;" xml:space="preserve">
<g>
	<path style="fill:#A29885;" d="M408.648,387.809l-0.628-0.56c-7.313-6.508-32.255-29.966-46.179-58.586l-0.976-2.007l2.017-0.958
		c12.89-6.121,24.147-14.941,33.458-26.216l3.944-4.776l-0.028,6.195c-0.058,12.876,0.618,56.977,11.742,83.852l1.265,3.058h-4.616
		V387.809z"/>
	<path style="fill:#A29885;" d="M409.955,385.597h-0.464c-7.431-6.613-31.948-29.714-45.66-57.902
		c10.55-5.009,23.046-13.281,34.215-26.805C397.978,315.708,398.818,358.692,409.955,385.597z"/>
	<path style="fill:#A29885;" d="M122.946,387.809c-1.493,0-2.698-1.107-2.803-2.574c-0.773-13.537-2.863-39.519-8.194-61.802
		l-0.239-0.997l0.607-0.826c1.903-2.589,3.686-5.117,5.3-7.512l0.984-1.46l1.643,0.631c9.362,3.597,19.606,6.291,30.449,8.007
		l2.012,0.318l-0.151,2.031c-0.375,5.003-2.864,31.543-15.097,62.779l-0.55,1.405h-13.961V387.809z"/>
	<path style="fill:#A29885;" d="M150.348,323.46c-0.354,4.722-2.82,31.162-14.951,62.137h-12.452c-0.332,0-0.575-0.21-0.597-0.52
		c-0.785-13.746-2.897-39.788-8.25-62.159c1.869-2.543,3.66-5.076,5.352-7.586C129.525,319.203,139.942,321.813,150.348,323.46z"/>
</g>
<g>
	<path style="fill:#BCB19B;" d="M295.102,387.809l-0.614-1.214c-12.037-23.802-32.407-67.684-32.407-81.171
		c0-14.987,8.211-32.669,8.294-32.835c1.403-2.991,0.094-6.623-2.942-8.047c-0.825-0.389-1.695-0.586-2.592-0.586
		c-2.341,0-4.502,1.373-5.505,3.498c-0.767,1.658-7.525,16.601-9.089,31.903l-0.142,1.386l-1.312,0.471
		c-7.891,2.834-35.393,10.19-67.457,10.19c-19.996,0-38.095-2.829-53.793-8.407l-2.454-0.872l1.257-2.28
		c5.363-9.727,9.291-19.232,11.675-28.249c0.857-3.242-1.082-6.579-4.323-7.438c-0.512-0.135-1.037-0.205-1.561-0.205
		c-2.752,0-5.168,1.866-5.874,4.537c-13.384,50.652-77.618,102.97-90.358,112.942l-1.778,1.392l-18.434-24.583l0.785-1.281
		c7.346-11.983,24.433-42.718,24.433-69.23c0-5.798-0.394-11.88-0.811-18.319l-0.035-0.558
		c-1.911-28.931-4.076-61.724,25.634-91.854c19.464-19.744,40.996-34.119,63.999-42.728c17.865-6.687,37.204-10.077,57.478-10.077
		c7.774,0,15.795,0.503,23.841,1.494c65.552,8.052,113.095,25.992,113.567,26.172c0.703,0.272,1.434,0.408,2.178,0.408
		c0.347,0,0.701-0.03,1.048-0.09c7.681-1.329,15.143-2.003,22.178-2.003c20.911,0,32.843,5.789,37.001,8.278l1.111,0.666
		l-0.036,1.294c-0.299,10.776,0.913,21.397,3.598,31.565c0.706,2.663,3.123,4.524,5.879,4.524c0.519,0,1.044-0.069,1.564-0.205
		c1.563-0.41,2.875-1.409,3.691-2.811c0.818-1.406,1.041-3.042,0.625-4.612c-4.341-16.431-3.511-31.138-2.05-40.582l0.459-2.967
		l2.698,1.318c24.362,11.904,31.098,35.512,31.373,36.511c0.719,2.656,3.133,4.505,5.872,4.505c0.526,0,1.054-0.07,1.569-0.207
		c1.547-0.414,2.854-1.407,3.672-2.792l1.254-2.121l1.974,1.475c34.051,25.446,44.609,84.038,47.035,101.39l0.116,0.833
		l-9.214,13.826c-2.677,4.003-7.147,6.391-11.961,6.391c-0.755,0-1.516-0.061-2.263-0.181c-7.679-1.23-20.845-3.413-39.959-6.83
		c-14.097-2.53-24.745-10.74-31.652-24.401c-5.581-11.036-7.569-23.53-7.569-31.541c0-3.354-2.728-6.082-6.082-6.082
		c-3.354,0-6.082,2.728-6.082,6.082c0,4.813,0.712,21.828,9.873,38.723l0.64,1.18l-0.752,1.112
		c-13.882,20.551-31.392,29.755-43.639,33.857l-4.012,1.344l1.188-4.062c1.925-6.589,3.444-12.599,4.512-17.866
		c0.662-3.281-1.471-6.497-4.756-7.169c-0.396-0.081-0.804-0.122-1.208-0.122c-2.881,0-5.387,2.049-5.957,4.872
		c-6.3,31.053-26.653,77.609-32.74,91.138l-0.587,1.304h-10.073V387.809z M465.002,239.074c-4.677,0-8.482,3.805-8.482,8.482
		s3.805,8.482,8.482,8.482c4.677,0,8.482-3.805,8.482-8.482C473.484,242.879,469.679,239.074,465.002,239.074z"/>
	<path style="fill:#BCB19B;" d="M495.092,285.707l-8.747,13.126c-2.632,3.937-7.354,6.005-12.032,5.253
		c-7.807-1.25-21.055-3.45-39.921-6.823c-13.37-2.4-23.488-10.207-30.068-23.223c-5.408-10.693-7.332-22.791-7.332-30.543
		c0-4.578-3.716-8.294-8.294-8.294s-8.294,3.716-8.294,8.294c0,10.428,2.621,25.91,10.141,39.777
		c-13.878,20.546-31.583,29.338-42.508,32.998c1.836-6.281,3.406-12.374,4.556-18.047c0.907-4.49-1.99-8.858-6.48-9.776
		c-4.479-0.907-8.869,1.991-9.776,6.48c-6.204,30.576-25.976,75.971-32.589,90.668h-7.287
		c-13.314-26.33-32.169-67.865-32.169-80.173c0-14.475,7.984-31.693,8.062-31.848c1.946-4.147,0.166-9.09-3.981-11.036
		c-4.147-1.957-9.079-0.177-11.036,3.97c-0.343,0.741-7.63,16.389-9.289,32.622c-14.287,5.131-71.868,18.799-119.762,1.78
		c5.463-9.908,9.433-19.507,11.877-28.752c1.172-4.434-1.471-8.968-5.894-10.141c-4.434-1.172-8.968,1.471-10.141,5.905
		c-13.259,50.183-77.619,102.4-89.584,111.767l-16.178-21.575c7.376-12.031,24.76-43.282,24.76-70.386
		c0-6.038-0.42-12.352-0.851-19.02c-1.88-28.475-4.003-60.744,25.003-90.159c19.242-19.518,40.507-33.717,63.199-42.21
		c24.461-9.156,51.477-12.009,80.273-8.46c65.543,8.05,112.585,25.866,113.05,26.042c1.404,0.542,2.908,0.686,4.39,0.431
		c34.513-5.972,53.124,3.273,57.669,5.994c-0.254,9.189,0.52,20.259,3.671,32.191c0.984,3.716,4.335,6.171,8.017,6.171
		c0.697,0,1.404-0.088,2.123-0.276c4.423-1.161,7.066-5.706,5.894-10.129c-4.313-16.322-3.362-30.886-2.002-39.677
		c23.4,11.434,29.913,34.027,30.211,35.11c1.194,4.412,5.728,7.022,10.141,5.85c2.19-0.586,3.937-1.991,5.009-3.804
		C482.884,211.163,493.147,271.785,495.092,285.707z M475.696,247.556c0-5.894-4.799-10.693-10.693-10.693
		c-5.894,0-10.693,4.799-10.693,10.693c0,5.894,4.799,10.693,10.693,10.693C470.896,258.249,475.696,253.45,475.696,247.556z"/>
</g>
<g>
	<path style="fill:#3D484A;" d="M511.956,286.879c0.199,1.913-0.276,3.848-1.349,5.452l-10.461,15.703
		c-5.374,8.05-14.442,12.795-23.941,12.795c-1.504,0-3.008-0.122-4.523-0.365c-7.862-1.261-21.221-3.472-40.208-6.878
		c-6.281-1.117-11.832-3.085-16.753-5.662c0.144,7.188,0.531,17.14,1.537,27.779c2.178,23.068,6.447,40.507,12.153,49.895h13.37
		c4.578,0,8.294,3.716,8.294,8.294s-3.716,8.294-8.294,8.294h-35.387c-1.924,0-3.804-0.675-5.286-1.902
		c-1.504-1.239-35.276-29.471-52.881-66.781c-2.61,0.708-4.733,1.139-6.182,1.404c-6.845,19.673-14.929,38.859-20.137,50.692h13.712
		c4.578,0,8.294,3.716,8.294,8.294s-3.716,8.294-8.294,8.294h-44.233c-3.107,0-5.949-1.725-7.365-4.49
		c-3.218-6.226-28.022-54.75-34.679-81.533c-12.872,3.937-38.682,9.643-67.932,9.643c-4.777,0-9.643-0.155-14.564-0.498
		c-0.52,6.624-3.052,30.853-13.712,60.29h14.398c4.578,0,8.294,3.716,8.294,8.294c0,4.578-3.716,8.294-8.294,8.294h-44.587
		c-9.101,0-16.643-7.099-17.163-16.167c-0.597-10.561-2.002-28.652-5.142-46.279c-4.81,5.584-10.03,11.246-15.659,16.975
		c-12.043,12.275-23.411,22.272-31.35,28.884h7.741c4.578,0,8.294,3.716,8.294,8.294c0,4.578-3.716,8.294-8.294,8.294H45.935
		c-9.554,0-18.667-4.556-24.395-12.197L1.657,363.481c-2.123-2.831-2.212-6.69-0.232-9.621c0.243-0.365,25.114-37.565,25.114-66.129
		c0-5.496-0.398-11.534-0.818-17.937c-2.002-30.366-4.49-68.175,29.747-102.887c43.658-44.289,96.584-62.955,157.316-55.491
		c60.456,7.431,104.645,22.537,114.808,26.23c18.921-3.019,36.017-2.411,50.868,1.803c3.627,1.028,6.712,2.179,9.278,3.284
		c0.907-4.755,1.814-7.619,1.924-7.962c1.404-4.324,6.027-6.701,10.362-5.352c22.614,7.077,35.542,22.061,42.519,33.805
		c24.76,10.118,43.968,34.071,57.094,71.227C509.258,261.666,511.846,285.862,511.956,286.879z M486.345,298.833l8.747-13.126
		c-1.946-13.922-12.208-74.544-46.169-99.923c-1.073,1.814-2.82,3.218-5.009,3.804c-4.412,1.172-8.946-1.438-10.141-5.85
		c-0.299-1.084-6.812-23.676-30.211-35.11c-1.36,8.791-2.311,23.355,2.002,39.677c1.172,4.423-1.471,8.968-5.894,10.129
		c-0.719,0.188-1.427,0.276-2.123,0.276c-3.682,0-7.033-2.455-8.017-6.171c-3.152-11.932-3.926-23.001-3.671-32.191
		c-4.545-2.72-23.156-11.965-57.669-5.994c-1.482,0.254-2.986,0.111-4.39-0.431c-0.464-0.177-47.507-17.992-113.05-26.042
		c-28.796-3.55-55.812-0.697-80.273,8.46c-22.692,8.493-43.957,22.692-63.199,42.21c-29.006,29.415-26.883,61.684-25.003,90.159
		c0.431,6.668,0.851,12.983,0.851,19.02c0,27.104-17.384,58.355-24.76,70.387l16.178,21.575
		c11.965-9.366,76.325-61.584,89.584-111.767c1.172-4.434,5.706-7.077,10.141-5.905c4.423,1.172,7.066,5.706,5.894,10.141
		c-2.444,9.245-6.414,18.843-11.877,28.752c47.894,17.019,105.475,3.351,119.762-1.78c1.659-16.234,8.946-31.881,9.289-32.622
		c1.957-4.147,6.889-5.927,11.036-3.97c4.147,1.946,5.927,6.889,3.981,11.036c-0.077,0.155-8.062,17.373-8.062,31.848
		c0,12.308,18.854,53.843,32.169,80.173h7.287c6.613-14.697,26.385-60.091,32.589-90.668c0.907-4.49,5.297-7.387,9.776-6.48
		c4.49,0.918,7.387,5.286,6.48,9.776c-1.15,5.673-2.72,11.766-4.556,18.047c10.926-3.66,28.63-12.452,42.508-32.998
		c-7.52-13.867-10.141-29.349-10.141-39.777c0-4.578,3.716-8.294,8.294-8.294s8.294,3.716,8.294,8.294
		c0,7.752,1.924,19.85,7.332,30.543c6.58,13.016,16.698,20.823,30.068,23.223c18.866,3.373,32.113,5.573,39.921,6.823
		C478.991,304.838,483.713,302.77,486.345,298.833z M409.489,385.597h0.464c-11.136-26.905-11.976-69.889-11.91-84.707
		c-11.169,13.524-23.665,21.796-34.215,26.805C377.543,355.884,402.058,378.984,409.489,385.597z M135.397,385.597
		c12.131-30.974,14.597-57.415,14.951-62.137c-10.406-1.648-20.823-4.257-30.897-8.128c-1.692,2.51-3.483,5.043-5.352,7.586
		c5.352,22.371,7.464,48.414,8.25,62.159c0.022,0.31,0.265,0.52,0.597,0.52L135.397,385.597L135.397,385.597z"/>
	<path style="fill:#3D484A;" d="M465.002,236.862c5.894,0,10.693,4.799,10.693,10.693c0,5.894-4.799,10.693-10.693,10.693
		c-5.894,0-10.693-4.799-10.693-10.693C454.309,241.662,459.108,236.862,465.002,236.862z"/>
</g>
<g>
</g>
<g>
</g>
<g>
</g>
<g>
</g>
<g>
</g>
<g>
</g>
<g>
</g>
<g>
</g>
<g>
</g>
<g>
</g>
<g>
</g>
<g>
</g>
<g>
</g>
<g>
</g>
<g>
</g>
</svg>
